# xmcd
#
# Track frame offsets: 
#        150
#        14921
#        24888
#        36642
#        51665
#        69329
#        92577
#        110793
#        127562
#        144313
#        163311
#        184807
#
# Disc length: 2658 seconds
#
# Revision: 0
# Processed by: cddbd v1.5.2PL0 Copyright (c) Steve Scherf et al.
# Submitted via: ExactAudioCopy v0.99pb5
#
DISCID=aa0a600c
DTITLE=Корсар - Вопрос-ответ
DYEAR=2001
DGENRE=Blues
TTITLE0=Небо в алмазах
TTITLE1=Восемь матросов
TTITLE2=Исповедь
TTITLE3=Родная
TTITLE4=Папироска
TTITLE5=Московские дожди
TTITLE6=Дочь
TTITLE7=Зима
TTITLE8=Вопрос-ответ
TTITLE9=Волшебная флейта
TTITLE10=Сон рекою
TTITLE11=Небо в алмазах (karaoke version)
EXTD=
EXTT0=
EXTT1=
EXTT2=
EXTT3=
EXTT4=
EXTT5=
EXTT6=
EXTT7=
EXTT8=
EXTT9=
EXTT10=
EXTT11=
PLAYORDER=
